<svg width="1200" height="600" xmlns="http://www.w3.org/2000/svg">
  <defs>
    <style>
      .grid-cell {
        fill: none;
        stroke: rgba(200, 200, 200, 0.5);
        stroke-width: 1;
      }
    </style>
  </defs>
  
  <!-- 网格线 - 18列×9行，格子大小66.67×66.67px -->
  <!-- 向内偏移0.5px避免边缘被裁剪 -->
  <path class="grid-cell" d="
    M 0.5 0.5 L 0.5 599.5
    M 66.67 0.5 L 66.67 599.5
    M 133.33 0.5 L 133.33 599.5
    M 200 0.5 L 200 599.5
    M 266.67 0.5 L 266.67 599.5
    M 333.33 0.5 L 333.33 599.5
    M 400 0.5 L 400 599.5
    M 466.67 0.5 L 466.67 599.5
    M 533.33 0.5 L 533.33 599.5
    M 600 0.5 L 600 599.5
    M 666.67 0.5 L 666.67 599.5
    M 733.33 0.5 L 733.33 599.5
    M 800 0.5 L 800 599.5
    M 866.67 0.5 L 866.67 599.5
    M 933.33 0.5 L 933.33 599.5
    M 1000 0.5 L 1000 599.5
    M 1066.67 0.5 L 1066.67 599.5
    M 1133.33 0.5 L 1133.33 599.5
    M 1199.5 0.5 L 1199.5 599.5
    
    M 0.5 0.5 L 1199.5 0.5
    M 0.5 66.67 L 1199.5 66.67
    M 0.5 133.33 L 1199.5 133.33
    M 0.5 200 L 1199.5 200
    M 0.5 266.67 L 1199.5 266.67
    M 0.5 333.33 L 1199.5 333.33
    M 0.5 400 L 1199.5 400
    M 0.5 466.67 L 1199.5 466.67
    M 0.5 533.33 L 1199.5 533.33
    M 0.5 599.5 L 1199.5 599.5
  "/>
</svg>